<?xml version="1.0" encoding="utf-8"?>
<!-- Generator: Adobe Illustrator 26.0.2, SVG Export Plug-In . SVG Version: 6.00 Build 0)  -->
<svg version="1.1" baseProfile="tiny" id="Layer_1" xmlns="http://www.w3.org/2000/svg" xmlns:xlink="http://www.w3.org/1999/xlink"
	 x="0px" y="0px" viewBox="0 0 750 1000" overflow="visible" xml:space="preserve">
<path id="path5740" fill="none" stroke="#1A3F1E" stroke-width="2.0659" d="M315.9,928.2l-19,10.5l-7.6,5.2l-3.8,2.6L315.9,928.2
	L315.9,928.2z"/>
<path id="path5730" fill-rule="evenodd" fill="#41AB34" stroke="#1D451F" stroke-width="1.1917" d="M316.8,926.5
	c0,0,18.5-15.5,23.2-30.3c5.1-16,19.8-90.1,19.8-90.1s-37.5,68.3-41,76.5C314.5,892.7,316.1,927.2,316.8,926.5z"/>
<g id="g5710" transform="matrix(.96776 0 0 1 -719.34 91.452)">
	<path id="path5696" fill-rule="evenodd" fill="#44AC34" stroke="#1F612B" stroke-width="2.096" d="M991.1,763.2
		c0,0-19.6-22.9-22.5-39.1c-3.1-17.5-6.9-94.2-6.9-94.2s32.7,81.5,35.4,90.8C1000.3,732.2,991.7,764.2,991.1,763.2L991.1,763.2z"/>
	<path id="path5698" fill-rule="evenodd" fill="#41AB34" stroke="#1D451F" stroke-width="1.3224" d="M989.8,764.8
		c0,0-29-5.6-44.2-17.2c-16.4-12.5-83.5-74.1-83.5-74.1s85.2,45.6,94.4,51.6C967.8,732.6,990.9,765.2,989.8,764.8z"/>
	<path id="path5708" fill-rule="evenodd" fill="#41AB34" stroke="#1D451F" stroke-width="1.3224" d="M990.9,764.6
		c0,0,11.6-27.2,26-39.6c15.6-13.4,89.9-66.3,89.9-66.3s-62.4,73.8-70.2,81.6C1027,749.9,990.3,765.7,990.9,764.6L990.9,764.6z"/>
</g>
<path id="path5577" fill-rule="evenodd" fill="#0D8136" stroke="#1A341C" stroke-width="2.4186" d="M314.9,796.9l-10.6,25.3"/>
<path id="path2162" fill-rule="evenodd" fill="#228736" stroke="#0D8136" stroke-width="44.859" d="M280.2,956.8l5.5-200l5.5-188.6
	l2.8-202.9l11.1-262.9"/>
<path id="path6158" fill="none" stroke="#1D5A29" stroke-width="5.0279" d="M274.7,438.1l39.1-0.1"/>
<path id="path6160" fill="none" stroke="#224F24" stroke-width="4.9187" d="M269.5,610H311"/>
<path id="path6162" fill="none" stroke="#224F24" stroke-width="4.9187" d="M265.5,786.6H307"/>
<path id="path6164" fill="none" stroke="#1D5A29" stroke-width="5.0279" d="M277,302.2l39.1-0.1"/>
<path id="path4526" fill-rule="evenodd" fill="#30A237" stroke="#175327" stroke-width="1.0211" d="M259.6,458.3
	c0,0,3.7-24.9,0.4-46.5c-3.2-21.5-49.7-136.8-49.7-136.8s12.5,108.9,21.2,134.4C237.8,427.7,259,458.8,259.6,458.3L259.6,458.3z"/>
<path id="path2310" fill-rule="evenodd" fill="#30A237" stroke="#1C4B23" stroke-width="1.2284" d="M257.7,458.2
	c0,0-23.3,4.4-40.7,0.7c-17.3-3.7-97.3-58-97.3-58s89.4,14.3,107.8,24.4C240.7,432.6,258.4,457.5,257.7,458.2z"/>
<path id="path4524" fill-rule="evenodd" fill="#30A237" stroke="#1E5B29" stroke-width="1.5028" d="M260.9,456.7
	c0,0-0.3-28.3,6.2-49c6.5-20.6,72.3-113.9,72.3-113.9s-28.9,106.9-41.8,128.4C288.4,437.5,261.5,457.6,260.9,456.7z"/>
<path id="path5579" fill-rule="evenodd" fill="#30A237" stroke="#1C4B23" stroke-width="1.2284" d="M312.7,797.4
	c0,0-16.6-17.4-23.4-34.4c-6.8-16.9-8.2-115.7-8.2-115.7s38.8,84.5,41,105.8C323.6,768.5,313.7,797.6,312.7,797.4z"/>
<path id="path5581" fill-rule="evenodd" fill="#30A237" stroke="#175327" stroke-width="1.0211" d="M313.7,799.1
	c0,0,22-10.8,37.4-25.7c15.4-14.8,81.6-119.4,81.6-119.4s-80.2,71.9-95.7,93.7C326,763.2,313,798.9,313.7,799.1L313.7,799.1z"/>
<path id="path5583" fill-rule="evenodd" fill="#30A237" stroke="#1E5B29" stroke-width="1.5028" d="M315.7,799.3
	c0,0,22.5-16.2,42.8-22.2c20.2-6,131.8-2.2,131.8-2.2S388.5,810.2,364,811.3C346.5,812.1,315.3,800.3,315.7,799.3L315.7,799.3z"/>
<path id="path5715" fill="none" stroke="#1B7131" stroke-width="1.7707" d="M238.7,856.8l21.5,24.8"/>
<path id="path5732" fill-rule="evenodd" fill="#41AB34" stroke="#1D451F" stroke-width="1.1815" d="M315.8,927.6
	c0,0,18.8,18.7,33.6,22.9c15.9,4.5,87.1,15.8,87.1,15.8s-71.8-35.9-80.2-39.1C346,923.2,315,926.9,315.8,927.6z"/>
<path id="path5736" fill-rule="evenodd" fill="#41AB34" stroke="#020203" stroke-width="0.6156" d="M317,928c0,0,24.8-6.8,43.3-17.5
	c21.9-12.7,71.7-56.1,71.7-56.1s-59.4,30.1-79.1,38.3C336.6,899.5,314.3,928.6,317,928z"/>
</svg>
