<?xml version="1.0" encoding="utf-8"?>
<!-- Generator: Adobe Illustrator 26.0.2, SVG Export Plug-In . SVG Version: 6.00 Build 0)  -->
<svg version="1.1" baseProfile="tiny" id="Layer_1" xmlns="http://www.w3.org/2000/svg" xmlns:xlink="http://www.w3.org/1999/xlink"
	 x="0px" y="0px" viewBox="0 0 750 1000" overflow="visible" xml:space="preserve">
<g id="g4536" transform="matrix(-.91406 .32850 -.31791 -.94451 932.41 1148)">
	<path id="path4538" fill-rule="evenodd" fill="#0D8136" stroke="#1A341C" stroke-width="2.4585" d="M268.2,429l20.3,18.7"/>
	<path id="path4542" fill-rule="evenodd" fill="#30A237" stroke="#1C4B23" stroke-width="1.2487" d="M268,431.3
		c0,0-22.1,10.5-40.4,11.5c-18.2,1-112.1-30-112.1-30s92.9-10.1,113.9-5.2C244.4,411.1,268.5,430.4,268,431.3z"/>
	<path id="path4540" fill-rule="evenodd" fill="#30A237" stroke="#175327" stroke-width="1.038" d="M269.9,430.9c0,0-2.8-25-11.6-45
		c-8.8-19.9-85-118.9-85-118.9s40.6,101.9,55.9,124.2C240.2,407.1,269.4,431.5,269.9,430.9z"/>
	<path id="path4544" fill-rule="evenodd" fill="#30A237" stroke="#1E5B29" stroke-width="1.5276" d="M270.7,429c0,0-7.6-27.3-6.5-49
		c1.2-21.7,42.7-129.4,42.7-129.4s-1.2,111-8.5,135.2C293.3,403.1,271.6,429.7,270.7,429L270.7,429z"/>
</g>
<path id="path5667" fill-rule="evenodd" fill="#399A36" stroke="#185A29" stroke-width="1.2452" d="M579.5,514.9
	c0,0,25.7-13.9,36.3-18.4c8.3-3.5,119-2.2,119-2.2s-104.1,26.9-108.8,28.4C617.3,525.5,575.7,517,579.5,514.9z"/>
<path id="path5692" fill="none" stroke="#175527" stroke-width="2.361" d="M550.1,726l-24,35.3"/>
<path id="path5640" fill="none" stroke="#0B7031" stroke-width="2.1148" d="M579.6,514.8l-40.4,5.4"/>
<path id="path3141" fill="none" stroke="#0D8136" stroke-width="37.579" d="M510.8,961.2V706.9l55.3-257.1L624.1,124"/>
<path id="path6174" fill="none" stroke="#1D5A29" stroke-width="5.0106" d="M580.7,267l32.8-0.1"/>
<path id="path6178" fill="none" stroke="#1D5A29" stroke-width="5.0044" d="M520,596l31.1-0.1"/>
<path id="path6180" fill="none" stroke="#1D5A29" stroke-width="5.0044" d="M494.2,776.7l31.1-0.1"/>
<path id="path6176" fill="none" stroke="#1D5A29" stroke-width="5.0044" d="M551.3,448l31.1-0.1"/>
<path id="path5617" fill-rule="evenodd" fill="#2B8835" stroke="#287D33" stroke-width="2.2941" d="M581.3,512.6
	c0,0,3.8-37,6.6-51.6c2.1-11.4,72.6-130.4,72.6-130.4S619,461.2,617.4,467.3C614.2,478.7,580.8,518.1,581.3,512.6z"/>
<path id="path5669" fill-rule="evenodd" fill="#399A36" stroke="#185A29" stroke-width="1.3356" d="M582,516.6c0,0,31,10.2,43,15.4
	c9.4,4,103.4,93.5,103.4,93.5s-106.6-63.2-111.6-65.8C607.5,554.5,577.3,515.1,582,516.6z"/>
<path id="path5686" fill-rule="evenodd" fill="#399A36" stroke="#185A29" stroke-width="1.3356" d="M549.7,723.6
	c0,0-3.8-33.3-4.2-46.9c-0.3-10.5,39.8-135.9,39.8-135.9s-11.8,126.4-12.1,132.2C572.7,683.9,550.3,728.7,549.7,723.6z"/>
<path id="path5688" fill-rule="evenodd" fill="#399A36" stroke="#185A29" stroke-width="1.4204" d="M549.1,726.1
	c0,0,14.3-24.1,21.4-33c5.5-6.9,117.4-52.5,117.4-52.5s-82.2,69.8-85.7,73.2C595.6,720.2,547,729.7,549.1,726.1L549.1,726.1z"/>
<path id="path5690" fill-rule="evenodd" fill="#399A36" stroke="#185A29" stroke-width="1.4204" d="M550.5,726.8
	c0,0,27.3-2.4,38.4-1.8c8.6,0.5,110.5,66.6,110.5,66.6s-103.1-27.1-107.8-28C582.6,762,546.4,727.2,550.5,726.8L550.5,726.8z"/>
</svg>
