<?xml version="1.0" encoding="utf-8"?>
<!-- Generator: Adobe Illustrator 26.0.2, SVG Export Plug-In . SVG Version: 6.00 Build 0)  -->
<svg version="1.1" baseProfile="tiny" id="Layer_1" xmlns="http://www.w3.org/2000/svg" xmlns:xlink="http://www.w3.org/1999/xlink"
	 x="0px" y="0px" viewBox="0 0 750 1000" overflow="visible" xml:space="preserve">
<path id="path5684" fill-rule="evenodd" fill="#0D8136" stroke="#194C23" stroke-width="2.0659" d="M662.7,184.6l7.6,36.6"/>
<g id="g5677" transform="matrix(-.060744 .99803 -.96585 -.062767 1080.3 -492.68)">
	<path id="path5671" fill-rule="evenodd" fill="#41AB34" stroke="#020203" stroke-width="0.6258" d="M705.4,388.3
		c0,0,6.5,21.8,6,42.5c-0.6,24.4-15.7,90.8-15.7,90.8s-2.5-62.8-5-82.3C688.6,423.2,704.6,386.1,705.4,388.3L705.4,388.3z"/>
	<path id="path5673" fill-rule="evenodd" fill="#41AB34" stroke="#020203" stroke-width="0.5391" d="M705.1,387
		c0,0-4.2,12.9-16,23.5c-14,12.5-67.9,43.3-67.9,43.3s31.3-33.2,38.9-43.9C666.3,401.1,705.3,385.7,705.1,387L705.1,387z"/>
	<path id="path5675" fill-rule="evenodd" fill="#41AB34" stroke="#020203" stroke-width="0.3645" d="M705.2,387.2
		c0,0-17.1-6-30.4-13.6c-15.8-9-52.8-37.2-52.8-37.2s42.2,22,56.1,28.3C689.5,369.9,707,387.7,705.2,387.2z"/>
</g>
<path id="path5615" fill-rule="evenodd" fill="#0D8136" stroke="#0D6E31" stroke-width="2.7008" d="M519.8,470.5l19.4,60.6"/>
<path id="path4112" fill="none" stroke="#2FA337" stroke-width="22.823" d="M446.1,951.1l22.1-331.4l246.1-457.1"/>
<path id="path6184" fill="none" stroke="#224720" stroke-width="3.3447" d="M447.9,806.8l19.5,0.4"/>
<path id="path6186" fill="none" stroke="#224720" stroke-width="3.3447" d="M452.6,682l19.5,0.4"/>
<path id="path5609" fill-rule="evenodd" fill="#30A237" stroke="#175327" stroke-width="1.0211" d="M519.3,471.3
	c0,0,3.7-24.9,0.4-46.5c-3.2-21.5-49.7-136.8-49.7-136.8s12.5,108.9,21.2,134.4C497.4,440.6,518.7,471.8,519.3,471.3z"/>
<path id="path5611" fill-rule="evenodd" fill="#30A237" stroke="#1C4B23" stroke-width="1.2284" d="M517.4,471.2
	c0,0-23.3,4.4-40.7,0.7c-17.3-3.7-97.3-58-97.3-58s89.4,14.3,107.8,24.4C500.3,445.6,518.1,470.4,517.4,471.2z"/>
<path id="path5613" fill-rule="evenodd" fill="#30A237" stroke="#1E5B29" stroke-width="1.5028" d="M520.5,469.7
	c0,0-0.3-28.3,6.2-49c6.5-20.6,72.3-113.9,72.3-113.9s-29,106.9-41.8,128.4C548.1,450.5,521.1,470.6,520.5,469.7z"/>
</svg>
