<?xml version="1.0" encoding="utf-8"?>
<!-- Generator: Adobe Illustrator 26.0.2, SVG Export Plug-In . SVG Version: 6.00 Build 0)  -->
<svg version="1.1" baseProfile="tiny" id="Layer_1" xmlns="http://www.w3.org/2000/svg" xmlns:xlink="http://www.w3.org/1999/xlink"
	 x="0px" y="0px" viewBox="0 0 750 1000" overflow="visible" xml:space="preserve">
<path id="path2314" fill-rule="evenodd" fill="#2BA237" stroke="#1C4620" stroke-width="1.0152" d="M130.6,410.1c0,0-21,8.2-35-0.9
	c-15.2-9.8-81.2-66.5-81.2-66.5s72.1,21.2,80.2,25.1C104.6,372.6,131.4,410,130.6,410.1z"/>
<path id="path3455" fill-rule="evenodd" fill="#0D8136" stroke="#22421D" stroke-width="2.7545" d="M126.7,589.9l27.2-28v1.5h1.4
	h-1.4"/>
<path id="path4522" fill-rule="evenodd" fill="#0D8136" stroke="#198235" stroke-width="3.2759" d="M128.9,408.3l18.6,50.2"/>
<path id="path2316" fill-rule="evenodd" fill="#44AC34" stroke="#1F612B" stroke-width="2.0619" d="M130.1,412.2
	c0,0-14.5,26.2-28.3,34.4C87,455.4,18.3,485,18.3,485s63.5-58.3,71.2-64C98.9,414,130.8,411.2,130.1,412.2z"/>
<path id="path2318" fill-rule="evenodd" fill="#41AB34" stroke="#1D451F" stroke-width="1.8562" d="M126.6,589.9
	c0,0,4.8,43.3-3.7,68.7c-9.2,27.4-60.3,143.1-60.3,143.1s23.1-136.5,27-151.6C94.3,631.6,126.6,588.2,126.6,589.9z"/>
<path id="path2160" fill-rule="evenodd" fill="#0F9B39" fill-opacity="0.9351" stroke="#0D8136" stroke-width="50.159" d="
	M196.2,955.3l-8.3-131.4l-13.8-162.9l-11.1-340l-2.8-165.7"/>
<path id="path5097" fill="none" stroke="#224F24" stroke-width="4.9187" d="M153,602.5h41.5"/>
<path id="path5105" fill="none" stroke="#1D5A29" stroke-width="5.0279" d="M149.2,432.2l39.1-0.1"/>
<path id="path5113" fill="none" stroke="#165A2A" stroke-width="5.1576" d="M141.2,266.6l42.9-1.9"/>
<path id="path6156" fill="none" stroke="#1D5A29" stroke-width="5.0279" d="M167.8,787.6l39.1-0.1"/>
<path id="path3458" fill-rule="evenodd" fill="#41AB34" stroke="#1D451F" stroke-width="1.8402" d="M126.6,590.3
	c0,0,30,25.9,39.9,50.6c10.7,26.6,47.8,149.5,47.8,149.5S145.7,676.6,138.9,663C130.6,646.1,125.5,589,126.6,590.3z"/>
<path id="path4518" fill-rule="evenodd" fill="#41AB34" stroke="#1D451F" stroke-width="1.8402" d="M130.7,413.7
	c0,0,5.4,40-3.3,65.2c-9.3,27.2-61.7,144-61.7,144s23-132,26.8-146.8C97.3,457.8,130.7,412,130.7,413.7z"/>
</svg>
