<?xml version="1.0" encoding="utf-8"?>
<!-- Generator: Adobe Illustrator 26.0.2, SVG Export Plug-In . SVG Version: 6.00 Build 0)  -->
<svg version="1.1" baseProfile="tiny" id="Layer_1" xmlns="http://www.w3.org/2000/svg" xmlns:xlink="http://www.w3.org/1999/xlink"
	 x="0px" y="0px" viewBox="0 0 750 1000" overflow="visible" xml:space="preserve">
<path id="path5769" fill="none" stroke="#0C6B30" stroke-width="2.0659" d="M486.7,108.8l-17.9,40.7"/>
<path id="path5589" fill-rule="evenodd" fill="#0D8136" stroke="#194C23" stroke-width="3.2464" d="M395.9,409.6l22.9,56.1"/>
<path id="path2286" fill-rule="evenodd" fill="#2B9937" stroke="#0B7031" stroke-width="1.3084" d="M397.5,413.2
	c0,0-26.6-49.3-30.1-64.8c-3.4-15.5-10.9-136.2-10.9-136.2S389.8,312,394,340.9C397.5,365.6,397.5,413.2,397.5,413.2z"/>
<path id="path2164" fill-rule="evenodd" fill="#319136" stroke="#0D8136" stroke-width="44.859" d="M430,956.8l-2.8-200l8.3-202.8
	V348.2l13.8-237.1"/>
<path id="path6166" fill="none" stroke="#1D5A29" stroke-width="5.0279" d="M420.6,292.9l39.1-0.1"/>
<path id="path6168" fill="none" stroke="#1D5A29" stroke-width="5.0279" d="M416.6,445.5l39.1-0.1"/>
<path id="path6170" fill="none" stroke="#1D5A29" stroke-width="5.0279" d="M413.2,604.2l39.1-0.1"/>
<path id="path4570" fill-rule="evenodd" fill="#399A36" stroke="#185A29" stroke-width="1.3356" d="M383.6,214.8
	c0,0-29.3,14.6-41.5,19.4c-9.5,3.7-137.3,5.5-137.3,5.5s119.4-29.8,124.8-31.4C339.8,205.4,388,212.6,383.6,214.8z"/>
<path id="path5573" fill-rule="evenodd" fill="#399A36" stroke="#185A29" stroke-width="1.4204" d="M382.9,212.6
	c0,0-24.8-12-34.1-18.2C341.5,189.6,285,79.8,285,79.8s76.4,76.5,80.1,79.7C371.9,165.6,386.6,214.4,382.9,212.6L382.9,212.6z"/>
<path id="path5571" fill-rule="evenodd" fill="#399A36" stroke="#185A29" stroke-width="1.2187" d="M384.8,213.1
	c0,0,1.2-33.8,2.5-47.2c1.1-10.4,49.4-119.6,49.4-119.6s-25.5,119.6-26.5,125.2C408.4,181.9,384.6,218.1,384.8,213.1L384.8,213.1z"
	/>
<path id="path5569" fill="none" stroke="#0B7031" stroke-width="2.7166" d="M382.9,212.5l37.8,48.8"/>
<path id="path2304" fill-rule="evenodd" fill="#2B9937" stroke="#1C7331" stroke-width="1.0919" d="M395.7,411.5c0,0-31.4-6-43.7-10
	c-9.6-3.1-106.7-100.1-106.7-100.1s109,58.5,114.1,60.9C368.8,366.7,400.4,412.4,395.7,411.5z"/>
<g id="g5764" transform="matrix(-.74931 .63286 -.61245 -.77427 1652.7 -55.173)">
	<path id="path5758" fill-rule="evenodd" fill="#41AB34" stroke="#020203" stroke-width="0.6258" d="M1037.5,635
		c0,0,6.5,21.8,6,42.5c-0.5,24.4-15.6,90.8-15.6,90.8s-2.5-62.8-5.1-82.3C1020.7,669.8,1036.7,632.7,1037.5,635z"/>
	<path id="path5760" fill-rule="evenodd" fill="#41AB34" stroke="#020203" stroke-width="0.5391" d="M1037.2,633.7
		c0,0-4.2,12.9-16.1,23.5c-13.9,12.5-67.9,43.3-67.9,43.3s31.3-33.2,38.9-43.9C998.4,647.7,1037.4,632.3,1037.2,633.7z"/>
	<path id="path5762" fill-rule="evenodd" fill="#41AB34" stroke="#020203" stroke-width="0.3645" d="M1037.3,633.8
		c0,0-17.1-6.1-30.5-13.6c-15.7-9-52.8-37.2-52.8-37.2s42.3,22,56.1,28.3C1021.6,616.5,1039.1,634.4,1037.3,633.8L1037.3,633.8z"/>
</g>
<path id="path6273" fill="none" stroke="#1D5A29" stroke-width="5.0279" d="M409,761.7l39.1-0.1"/>
</svg>
