<?xml version="1.0" encoding="utf-8"?>
<!-- Generator: Adobe Illustrator 26.0.2, SVG Export Plug-In . SVG Version: 6.00 Build 0)  -->
<svg version="1.1" baseProfile="tiny" id="Layer_1" xmlns="http://www.w3.org/2000/svg" xmlns:xlink="http://www.w3.org/1999/xlink"
	 x="0px" y="0px" viewBox="0 0 750 1000" overflow="visible" xml:space="preserve">
<path id="path5756" fill="none" stroke="#1B441F" stroke-width="2.5987" d="M218.8,643.9l19.6,29.1v1.6"/>
<path id="path4435" fill-rule="evenodd" fill="#41AB34" stroke="#020203" stroke-width="0.6156" d="M98.4,234.9
	c0,0,6.3,21.8,5.8,42.5c-0.5,24.4-15.2,90.8-15.2,90.8s-2.4-62.8-4.9-82.3C82.2,269.7,97.6,232.6,98.4,234.9z"/>
<path id="path5083" fill="none" stroke="#328F36" stroke-width="9.8375" d="M222,956.4l19.4-342.9L75.4,156.4"/>
<path id="path3464" fill-rule="evenodd" fill="#41AB34" stroke="#020203" stroke-width="0.5303" d="M98.1,233.6
	c0,0-4.1,12.9-15.5,23.5c-13.5,12.5-65.7,43.3-65.7,43.3s30.3-33.2,37.6-43.9C60.6,247.7,98.3,232.2,98.1,233.6z"/>
<path id="path4437" fill-rule="evenodd" fill="#41AB34" stroke="#020203" stroke-width="0.3586" d="M98.2,233.7
	c0,0-16.5-6.1-29.5-13.6c-15.2-9-51.1-37.2-51.1-37.2s40.9,22,54.3,28.3C83,216.4,99.9,234.3,98.2,233.7z"/>
<path id="path5742" fill-rule="evenodd" fill="#2BA237" stroke="#1C4620" stroke-width="0.8553" d="M220.2,643.3
	c0,0-2.6-17.9,8.1-27.3c11.6-10.1,73.9-51.8,73.9-51.8s-33.2,52.8-38.3,58.5C257.7,629.6,220.1,644,220.2,643.3L220.2,643.3z"/>
<path id="path5744" fill-rule="evenodd" fill="#44AC34" stroke="#1F612B" stroke-width="1.7371" d="M218.4,642.5
	c0,0-19.4-16.1-23.6-28.4c-4.5-13.3-15.4-72.5-15.4-72.5s36.7,60.3,39.9,67.4C223.4,617.7,219.1,643.2,218.4,642.5L218.4,642.5z"/>
<path id="path5746" fill-rule="evenodd" fill="#41AB34" stroke="#1D451F" stroke-width="0.6335" d="M217.5,643.2
	c0,0-16.4-1.1-25.5-5.2c-9.9-4.4-51.1-26.8-51.1-26.8s50.1,15.1,55.6,17.1C203.3,630.9,218.2,643.3,217.5,643.2L217.5,643.2z"/>
</svg>
