<?xml version="1.0" encoding="utf-8"?>
<!-- Generator: Adobe Illustrator 26.0.2, SVG Export Plug-In . SVG Version: 6.00 Build 0)  -->
<svg version="1.1" baseProfile="tiny" id="Layer_1" xmlns="http://www.w3.org/2000/svg" xmlns:xlink="http://www.w3.org/1999/xlink"
	 x="0px" y="0px" viewBox="0 0 750 1000" overflow="visible" xml:space="preserve">
<path id="path5771" fill="none" stroke="#194C23" stroke-width="1.9675" d="M187.8,118l23.3,9.2"/>
<path id="path5665" fill-rule="evenodd" fill="#268E37" stroke="#0E6A2F" stroke-width="1.7064" d="M190.8,121.7
	c0,0,1.1,33.3,2.4,46.9c1,10.5,47.1,136.9,47.1,136.9s-24.2-126.9-25.1-132.6C213.4,161.9,190.7,116.7,190.8,121.7L190.8,121.7z"/>
<path id="path2168" fill="none" stroke="#0D8136" stroke-width="28.89" d="M401.4,947.8L340,578.4l-72.6-234.2L211.5,82.9"/>
<path id="path5119" fill="none" stroke="#2D401C" stroke-width="3.148" d="M327.2,582.5l24.9-2.9"/>
<path id="path5123" fill="none" stroke="#155E2B" stroke-width="4.5252" d="M242.3,285.3h22.1"/>
<path id="path6182" fill="none" stroke="#224720" stroke-width="3.3447" d="M373.7,844.5l19.4-2.8"/>
<path id="path5634" fill-rule="evenodd" fill="#399A36" stroke="#185A29" stroke-width="1.3356" d="M188.9,119.6
	c0,0-29.1-15-40.2-22.1C140,92,60.4-11.3,60.4-11.3c0,0,95.9,79.4,100.4,82.8C169.3,78,193.3,121.8,188.9,119.6L188.9,119.6z"/>
<path id="path5636" fill-rule="evenodd" fill="#399A36" stroke="#185A29" stroke-width="1.4204" d="M190.9,119.1
	c0,0-21.9,17-31.6,22.6c-7.5,4.3-127.8,4.4-127.8,4.4c0,0,101.2-33.8,105.7-35.7C145.6,107,194.2,116.5,190.9,119.1L190.9,119.1z"/>
</svg>
