<?xml version="1.0" encoding="utf-8"?>
<!-- Generator: Adobe Illustrator 26.0.2, SVG Export Plug-In . SVG Version: 6.00 Build 0)  -->
<svg version="1.1" baseProfile="tiny" id="Layer_1" xmlns="http://www.w3.org/2000/svg" xmlns:xlink="http://www.w3.org/1999/xlink"
	 x="0px" y="0px" viewBox="0 0 300 300" overflow="visible" xml:space="preserve">
<path fill-rule="evenodd" fill="#D7B46A" d="M-0.1,145.4l0.5,19.9c0.1,1.2-0.3,2.3,1,2.3h85.3v20.7H4.9c0,1.7,2.2,8,2.9,10.1
	l3.6,9.4h75.2v20.7H22.1c0.3,1.1,3.4,5.8,4.4,7.2l4.9,6.6c6.5,8.3,14.5,16.8,22.8,23.5c7.4,6,8.4,6.2,14.8,10.9l12.9,7.5
	c3.5,2,13.3,6.5,17.9,7.9l6.6,2.3c1.6,0.5,2.8,0.8,4.4,1.2l9.3,2.3c3.5,0.7,12.3,2.3,15.5,2.3v-71.7h-29.3v-20.7h87.4v20.7H164v71.7
	c2.4,0,12.3-1.5,15-2.1c8.3-1.8,16.5-4.1,24.4-7.3c5.4-2.2,9-3.6,14-6.4l16.1-9.6c9.9-6.9,18.3-13.9,26.6-22.9c0,0,0.1-0.1,0.1-0.2
	l3.7-4.2c0.6-0.7,0.7-0.9,1.3-1.6l5.1-6.5c1.3-1.9,6.5-8.8,7-10.8h-64.6v-20.7h75.2c0.1-0.3,4.5-11.5,5.3-14.3
	c0.4-1.6,1.2-4,1.2-5.3h-81.8v-20.7h85.9c0.4-1.7,0.8-6.1,0.9-8c0.3-9.7,0.4-11.3-0.3-21.6c-0.1-1.7-0.5-3.9-0.7-5.8
	c-0.1-1-0.1-2-0.3-3c-0.2-1.2-0.3-1.8-0.5-3c-1-5.8-2.7-12.9-4.5-18.6c-0.3-1-0.4-2.2-1.4-2.2H164.9c-0.7,0-0.9,0.2-0.9,0.9v61.3
	h29.6v20.7h-87.4v-20.7h29.3v-62.2H7.6c-1.2,0-1.1,1.6-1.9,4c-1.1,3.2-2.8,10.9-3.5,14.3C1,130.1-0.1,138.8-0.1,145.4 M19.1,146.3
	c0-5.7,1.4-16,2.7-21.3h94.5v23.4H19.1V146.3z M183.2,125h94.5c0.7,3.1,1.6,6.9,1.8,10.4c0.3,4.8,0.9,7.3,0.9,13h-97.2V125z
	 M63.3,247.9h53v29c-1,0-3.1-0.6-4.1-1c-1.1-0.4-2.3-0.9-3.7-1.3l-7.5-2.8c-6.1-2.4-8.4-3.8-13.8-6.7c-2.3-1.2-4.3-2.4-6.4-3.7
	c-2.2-1.4-4-2.7-6.2-4.2c-3.5-2.4-5.6-4.2-8.7-6.7C64.9,249.7,64,249,63.3,247.9z M183.2,276.9v-28.1c0-1.2,1.1-0.9,2.4-0.9
	c16.3,0.3,34.4,0,50.7,0c-1.2,1.8-6,5.4-8.1,7c-1.1,0.8-1.9,1.5-3.1,2.3c-10.6,7.2-17.8,11.5-29.9,16.1
	C192.9,274.1,185.4,276.9,183.2,276.9z"/>
<path fill-rule="evenodd" fill="#D7B46A" d="M86.7,15.4v10.7H69.2c-2.1,0-16.4,11.5-18.9,14c-1.9,1.9-5,4.1-5.4,5.6h41.8v19H28.9
	c-1.9,0-11.4,17.2-12,18.3c-0.8,1.4-1.1,1.3,4.9,1.3h261.3c-0.2-1.8-7.5-13.4-8.8-15.2c-0.6-1-2.7-4.3-3.7-4.3h-57.8v-19h41.8
	c-0.7-2.8-22.4-19.5-23.7-19.5h-18.1V15.4c-0.9-0.2-15.9-7.1-19.3-7.4v18.1h-87.4V8C103,8.1,87.9,15.1,86.7,15.4 M106.2,45.6h87.4
	v19h-87.4V45.6z"/>
</svg>
