<?xml version="1.0" encoding="utf-8"?>
<!-- Generator: Adobe Illustrator 26.0.2, SVG Export Plug-In . SVG Version: 6.00 Build 0)  -->
<svg version="1.1" baseProfile="tiny" id="Layer_1" xmlns="http://www.w3.org/2000/svg" xmlns:xlink="http://www.w3.org/1999/xlink"
	 x="0px" y="0px" viewBox="0 0 1280 1266" overflow="visible" xml:space="preserve">
<g transform="translate(0.000000,1266.000000) scale(0.100000,-0.100000)">
	<path fill="#D7B46A" d="M1704,11607C801,11028,48,10543,31,10528l-31-27l65-423c35-233,101-715,145-1073c81-644,82-650,108-676
		c15-14,218-203,452-420c2160-2004,3074-2830,3100-2803c4,5,47,144,95,309s113,390,145,500s113,389,180,620s160,551,206,710
		c47,160,86,297,86,305c1,8-138,236-310,506c-256,405-892,1475-892,1503c0,4,77,169,171,367c804,1693,1040,2197,1033,2204
		c-5,5-72,36-149,68c-77,33-352,150-612,261c-259,111-473,201-475,200C3346,12659,2606,12185,1704,11607z"/>
	<path fill="#D7B46A" d="M8820,12380c-332-142-606-262-607-267c-2-5,256-555,573-1223s590-1245,606-1282l30-67l-192-333
		c-355-614-402-691-685-1138c-155-245-293-463-307-485l-25-40l28-95c15-52,82-284,149-515s159-548,205-705c45-157,138-476,205-710
		c68-234,126-428,129-432c22-26,1045,899,2981,2697c266,247,510,475,542,505l58,55l75,610c81,650,100,793,170,1244l44,286l-27,27
		c-41,40-3309,2128-3329,2127C9433,12639,9153,12522,8820,12380z"/>
	<path fill="#D7B46A" d="M4767,12004c-30-60-611-1247-1038-2121l-138-283l878-1467c483-808,883-1478,890-1490c6-13,29-148,51-300
		c70-494,140-994,160-1143c11-80,24-179,30-220c12-83,59-452,211-1635l102-799l74-131c41-71,317-585,614-1141l539-1011l133-27
		c238-49,630-134,750-162c108-25,117-29,117-51c0-19,62,30,352,278c194,166,361,310,371,319c18,17,16,22-47,149
		c-37,72-70,131-75,131c-4,0-32,58-62,130c-30,71-60,130-66,130c-7,0-13,7-13,16s-6,14-13,11c-7-2-143-99-302-213
		c-160-115-304-219-321-232l-32-22l-92,273c-262,777-401,1191-528,1567l-139,415l33,620c18,341,35,654,39,695c3,41,35,424,70,850
		c36,426,76,917,90,1090s29,326,33,340c5,14,401,707,880,1541l872,1516l-166,324c-319,624-420,829-716,1454l-297,630l-873,2
		c-878,2-2045,17-2235,29l-101,7L4767,12004z"/>
	<path fill="#D7B46A" d="M4752,7128c-10-29-171-493-357-1031l-338-978l76-357c42-196,153-717,246-1157c94-440,174-811,178-825
		c5-15,76-78,188-166c99-78,181-141,182-140s-33,138-76,303l-79,301l14,169c8,92,38,474,68,848l55,680l60,330
		c59,327,205,1142,237,1325l17,96l-222,327c-123,180-224,327-226,327S4763,7156,4752,7128z"/>
	<path fill="#D7B46A" d="M7753,6750l-223-329l49-273c28-150,99-552,160-893l111-620l50-635c28-349,57-723,66-830l16-196l-76-290
		c-42-160-76-296-76-302c0-7,82,52,182,131l181,142l83,385c104,490,411,1929,416,1955c5,23,30-50-381,1137c-177,510-321,932-321,938
		c0,5-3,10-7,9C7978,7079,7875,6931,7753,6750z"/>
</g>
</svg>
